<svg xmlns="http://www.w3.org/2000/svg" viewBox="0 0 80 80" shape-rendering="crispEdges">
  <!-- Support structure -->
  <rect x="36" y="60" width="8" height="20" fill="#7c2d12"/>
  <rect x="36" y="60" width="2" height="20" fill="#92400e"/>
  
  <!-- Outer wheel -->
  <rect x="8" y="36" width="4" height="8" fill="#dc2626"/>
  <rect x="68" y="36" width="4" height="8" fill="#dc2626"/>
  <rect x="36" y="8" width="8" height="4" fill="#dc2626"/>
  <rect x="36" y="68" width="8" height="4" fill="#dc2626"/>
  
  <rect x="14" y="14" width="4" height="4" fill="#dc2626"/>
  <rect x="62" y="14" width="4" height="4" fill="#dc2626"/>
  <rect x="14" y="62" width="4" height="4" fill="#dc2626"/>
  <rect x="62" y="62" width="4" height="4" fill="#dc2626"/>
  
  <!-- Wheel rim -->
  <rect x="12" y="20" width="4" height="4" fill="#f87171"/>
  <rect x="64" y="20" width="4" height="4" fill="#f87171"/>
  <rect x="12" y="56" width="4" height="4" fill="#f87171"/>
  <rect x="64" y="56" width="4" height="4" fill="#f87171"/>
  <rect x="20" y="12" width="4" height="4" fill="#f87171"/>
  <rect x="56" y="12" width="4" height="4" fill="#f87171"/>
  <rect x="20" y="64" width="4" height="4" fill="#f87171"/>
  <rect x="56" y="64" width="4" height="4" fill="#f87171"/>
  
  <!-- Spokes -->
  <rect x="38" y="12" width="4" height="56" fill="#dc2626"/>
  <rect x="12" y="38" width="56" height="4" fill="#dc2626"/>
  
  <!-- Center hub -->
  <rect x="36" y="36" width="8" height="8" fill="#991b1b"/>
  <rect x="38" y="38" width="4" height="4" fill="#7f1d1d"/>
  
  <!-- Gondolas (pixel style) -->
  <rect x="36" y="4" width="8" height="6" fill="#fca5a5"/>
  <rect x="36" y="4" width="8" height="2" fill="#fecaca"/>
  
  <rect x="36" y="70" width="8" height="6" fill="#fca5a5"/>
  <rect x="36" y="70" width="8" height="2" fill="#fecaca"/>
  
  <rect x="4" y="36" width="6" height="8" fill="#fca5a5"/>
  <rect x="4" y="36" width="6" height="2" fill="#fecaca"/>
  
  <rect x="70" y="36" width="6" height="8" fill="#fca5a5"/>
  <rect x="70" y="36" width="6" height="2" fill="#fecaca"/>
</svg>
