<svg xmlns="http://www.w3.org/2000/svg" viewBox="0 0 120 80" shape-rendering="crispEdges">
  <!-- Floor -->
  <rect x="10" y="60" width="100" height="12" fill="#92400e"/>
  <rect x="10" y="60" width="14" height="12" fill="#7c2d12"/>

  <!-- Market canopy -->
  <rect x="22" y="26" width="76" height="8" fill="#f97316"/>
  <rect x="22" y="26" width="76" height="2" fill="#fdba74"/>
  <rect x="26" y="34" width="8" height="6" fill="#ea580c"/>
  <rect x="40" y="34" width="8" height="6" fill="#fb923c"/>
  <rect x="54" y="34" width="8" height="6" fill="#ea580c"/>
  <rect x="68" y="34" width="8" height="6" fill="#fb923c"/>
  <rect x="82" y="34" width="8" height="6" fill="#ea580c"/>

  <!-- Counter -->
  <rect x="26" y="40" width="68" height="18" fill="#fed7aa"/>
  <rect x="26" y="40" width="6" height="18" fill="#fdba74"/>
  <rect x="26" y="56" width="68" height="4" fill="#9a3412"/>

  <!-- Left table -->
  <rect x="16" y="46" width="10" height="8" fill="#78350f"/>
  <rect x="18" y="54" width="2" height="6" fill="#78350f"/>
  <rect x="22" y="54" width="2" height="6" fill="#78350f"/>

  <!-- Right table -->
  <rect x="94" y="46" width="10" height="8" fill="#78350f"/>
  <rect x="96" y="54" width="2" height="6" fill="#78350f"/>
  <rect x="100" y="54" width="2" height="6" fill="#78350f"/>

  <!-- Plate -->
  <rect x="48" y="46" width="24" height="6" fill="#f8fafc"/>
  <rect x="52" y="42" width="16" height="4" fill="#facc15"/>
  <rect x="56" y="38" width="8" height="4" fill="#ef4444"/>

  <!-- Fork and knife -->
  <rect x="36" y="42" width="2" height="12" fill="#e5e7eb"/>
  <rect x="82" y="42" width="2" height="12" fill="#e5e7eb"/>
</svg>
