<svg xmlns="http://www.w3.org/2000/svg" viewBox="0 0 40 40" shape-rendering="crispEdges">
  <!-- Base path -->
  <rect width="40" height="40" fill="#9ca3af"/>
  
  <!-- Cobblestones pattern -->
  <rect x="2" y="2" width="8" height="8" fill="#6b7280" opacity="0.3"/>
  <rect x="12" y="2" width="8" height="8" fill="#6b7280" opacity="0.25"/>
  <rect x="22" y="2" width="8" height="8" fill="#6b7280" opacity="0.3"/>
  <rect x="32" y="2" width="6" height="8" fill="#6b7280" opacity="0.25"/>
  
  <rect x="2" y="12" width="6" height="8" fill="#6b7280" opacity="0.25"/>
  <rect x="10" y="12" width="10" height="8" fill="#6b7280" opacity="0.3"/>
  <rect x="22" y="12" width="8" height="8" fill="#6b7280" opacity="0.25"/>
  <rect x="32" y="12" width="6" height="8" fill="#6b7280" opacity="0.3"/>
  
  <rect x="2" y="22" width="8" height="8" fill="#6b7280" opacity="0.3"/>
  <rect x="12" y="22" width="6" height="8" fill="#6b7280" opacity="0.25"/>
  <rect x="20" y="22" width="10" height="8" fill="#6b7280" opacity="0.3"/>
  <rect x="32" y="22" width="6" height="8" fill="#6b7280" opacity="0.25"/>
  
  <rect x="2" y="32" width="10" height="6" fill="#6b7280" opacity="0.25"/>
  <rect x="14" y="32" width="8" height="6" fill="#6b7280" opacity="0.3"/>
  <rect x="24" y="32" width="8" height="6" fill="#6b7280" opacity="0.25"/>
  <rect x="34" y="32" width="4" height="6" fill="#6b7280" opacity="0.3"/>
</svg>
