<svg xmlns="http://www.w3.org/2000/svg" viewBox="0 0 80 80" shape-rendering="crispEdges">
  <rect width="80" height="80" fill="none"/>

  <!-- Dark outline -->
  <path fill="#0f172a" d="M28 8h20v8h12v12h-8v8h-8v10h12v8H34v12H18v-8H8V50h10V38h12V24h-2z"/>

  <!-- Main water body -->
  <path fill="#3b82f6" d="M30 12h16v8h10v10h-8v10h-10v12h12v4H36v12H22v-8H12V52h10V40h12z"/>

  <!-- Shadow pools -->
  <rect x="46" y="18" width="8" height="6" fill="#1d4ed8"/>
  <rect x="22" y="46" width="8" height="6" fill="#1d4ed8"/>
  <rect x="36" y="58" width="10" height="6" fill="#1d4ed8"/>

  <!-- Highlights -->
  <rect x="34" y="20" width="8" height="4" fill="#93c5fd"/>
  <rect x="40" y="32" width="6" height="4" fill="#93c5fd"/>
  <rect x="28" y="52" width="6" height="4" fill="#93c5fd"/>
</svg>
