<svg xmlns="http://www.w3.org/2000/svg" viewBox="0 0 40 40" shape-rendering="crispEdges">
  <!-- Trunk -->
  <rect x="17" y="20" width="6" height="16" fill="#78350f"/>
  <rect x="17" y="20" width="2" height="16" fill="#92400e"/>
  <rect x="19" y="22" width="2" height="2" fill="#92400e"/>
  
  <!-- Foliage (bottom layer) -->
  <rect x="8" y="18" width="24" height="8" fill="#166534"/>
  <rect x="10" y="16" width="20" height="2" fill="#166534"/>
  <rect x="6" y="20" width="28" height="4" fill="#15803d"/>
  
  <!-- Middle layer -->
  <rect x="10" y="12" width="20" height="6" fill="#15803d"/>
  <rect x="12" y="10" width="16" height="2" fill="#15803d"/>
  <rect x="8" y="14" width="24" height="4" fill="#16a34a"/>
  
  <!-- Top layer -->
  <rect x="14" y="6" width="12" height="6" fill="#16a34a"/>
  <rect x="16" y="4" width="8" height="2" fill="#16a34a"/>
  <rect x="12" y="8" width="16" height="4" fill="#22c55e"/>
  
  <!-- Highlights -->
  <rect x="16" y="8" width="4" height="2" fill="#4ade80" opacity="0.6"/>
  <rect x="22" y="12" width="3" height="2" fill="#4ade80" opacity="0.5"/>
  
  <!-- Base/roots -->
  <rect x="15" y="35" width="10" height="2" fill="#166534" opacity="0.5"/>
</svg>
