<svg width="48" height="48" viewBox="0 0 48 48" fill="none" xmlns="http://www.w3.org/2000/svg">
<rect x="16" width="16" height="4" fill="#FF9900"/>
<rect x="32" y="4" width="8" height="4" fill="#FF9900"/>
<rect x="40" y="8" width="4" height="8" fill="#FF9900"/>
<rect x="44" y="16" width="4" height="16" fill="#FF9900"/>
<rect x="40" y="32" width="4" height="8" fill="#FF9900"/>
<rect x="32" y="40" width="8" height="4" fill="#FF9900"/>
<rect x="16" y="44" width="16" height="4" fill="#FF9900"/>
<rect x="8" y="40" width="8" height="4" fill="#FF9900"/>
<rect x="4" y="32" width="4" height="8" fill="#FF9900"/>
<rect y="16" width="4" height="16" fill="#FF9900"/>
<rect x="4" y="8" width="4" height="8" fill="#FF9900"/>
<rect x="8" y="4" width="8" height="4" fill="#FF9900"/>
<rect x="16" y="4" width="4" height="4" fill="#FFCC00"/>
<rect x="20" y="4" width="12" height="4" fill="#FFFF00"/>
<rect x="12" y="8" width="4" height="4" fill="#FFCC00"/>
<rect x="8" y="12" width="4" height="4" fill="#FFCC00"/>
<rect x="16" y="8" width="8" height="4" fill="#FFFF00"/>
<rect x="12" y="12" width="4" height="4" fill="#FFFF00"/>
<rect x="4" y="16" width="4" height="16" fill="#FFCC00"/>
<rect x="16" y="40" width="4" height="4" fill="#FFCC00"/>
<rect x="20" y="40" width="12" height="4" fill="#FFFF00"/>
<rect x="32" y="36" width="4" height="4" fill="#FFCC00"/>
<rect x="36" y="32" width="4" height="4" fill="#FFCC00"/>
<rect x="24" y="36" width="8" height="4" fill="#FFFF00"/>
<rect x="32" y="32" width="4" height="4" fill="#FFFF00"/>
<rect x="40" y="16" width="4" height="16" fill="#FFCC00"/>
<rect x="36" y="12" width="4" height="4" fill="#FFCC00"/>
<rect x="32" y="8" width="4" height="4" fill="#FFCC00"/>
<rect x="32" y="12" width="4" height="4" fill="#FFFF00"/>
<rect x="36" y="16" width="4" height="16" fill="#FFFF00"/>
<rect x="8" y="32" width="4" height="4" fill="#FFCC00"/>
<rect x="12" y="36" width="4" height="4" fill="#FFCC00"/>
<rect x="12" y="32" width="4" height="4" fill="#FFFF00"/>
<rect x="8" y="16" width="4" height="16" fill="#FFFF00"/>
<rect x="24" y="8" width="8" height="4" fill="#FFCC00"/>
<rect x="32" y="16" width="4" height="4" fill="#FFCC00"/>
<rect x="32" y="20" width="4" height="12" fill="#FFFF00"/>
<rect x="16" y="36" width="8" height="4" fill="#FFCC00"/>
<rect x="12" y="28" width="4" height="4" fill="#FFCC00"/>
<rect x="12" y="16" width="4" height="12" fill="#FFFF00"/>
<rect x="16" y="12" width="8" height="4" fill="#FF9900"/>
<rect x="24" y="12" width="8" height="4" fill="#FFCC00"/>
<rect x="32" y="24" width="4" height="4" fill="#FFCC00"/>
<rect x="24" y="32" width="8" height="4" fill="#FF9900"/>
<rect x="16" y="32" width="8" height="4" fill="#FFCC00"/>
<rect x="12" y="20" width="4" height="4" fill="#FFCC00"/>
<rect x="16" y="16" width="4" height="16" fill="#FF9900"/>
<rect x="20" y="16" width="8" height="4" fill="#FFCC00"/>
<rect x="28" y="20" width="4" height="4" fill="#FFCC00"/>
<rect x="28" y="16" width="4" height="4" fill="#FFCC00"/>
<rect x="24" y="20" width="4" height="4" fill="#FFCC00"/>
<rect x="24" y="24" width="4" height="4" fill="#FFCC00"/>
<rect x="20" y="28" width="8" height="4" fill="#FFCC00"/>
<rect x="20" y="20" width="4" height="8" fill="#FFFF00"/>
<rect x="24" y="28" width="4" height="4" fill="#FFFF00"/>
<rect x="28" y="24" width="4" height="4" fill="#FFFF00"/>
<rect x="20" y="16" width="8" height="4" fill="#FFFF00"/>
<rect x="28" y="20" width="4" height="4" fill="#FFFF00"/>
<rect x="28" y="24" width="4" height="4" fill="#FFFF00"/>
<rect x="24" y="28" width="4" height="4" fill="#FFFF00"/>
<rect x="20" y="32" width="8" height="4" fill="#FFFF00"/>
<rect x="16" y="28" width="4" height="4" fill="#FFCC00"/>
</svg>