<svg width="80" height="80" viewBox="0 0 20 20" xmlns="http://www.w3.org/2000/svg" shape-rendering="crispEdges">
  <!-- Floor -->
  <rect x="0" y="0" width="20" height="20" fill="#37474f" />
  <rect x="1" y="1" width="18" height="18" fill="#455a64" />
  
  <!-- Roof supports -->
  <rect x="1" y="1" width="1" height="18" fill="#90a4ae" />
  <rect x="18" y="1" width="1" height="18" fill="#90a4ae" />
  <rect x="1" y="1" width="18" height="1" fill="#90a4ae" />
  
  <!-- Red Car -->
  <rect x="3" y="4" width="6" height="4" fill="#ef5350" />
  <rect x="4" y="5" width="4" height="2" fill="#ffebee" />
  <rect x="3" y="8" width="6" height="1" fill="#212121" />
  
  <!-- Blue Car -->
  <rect x="11" y="12" width="6" height="4" fill="#42a5f5" />
  <rect x="12" y="13" width="4" height="2" fill="#e3f2fd" />
  <rect x="11" y="16" width="6" height="1" fill="#212121" />
  
  <!-- Green Car -->
  <rect x="10" y="5" width="6" height="4" fill="#66bb6a" />
  <rect x="11" y="6" width="4" height="2" fill="#e8f5e9" />
  <rect x="10" y="9" width="6" height="1" fill="#212121" />
  
  <!-- Sparks -->
  <rect x="5" y="2" width="1" height="1" fill="#ffeb3b" />
  <rect x="14" y="3" width="1" height="1" fill="#ffeb3b" />
</svg>