<svg xmlns="http://www.w3.org/2000/svg" viewBox="0 0 120 80" shape-rendering="crispEdges">
  <!-- Track supports -->
  <rect x="10" y="50" width="6" height="30" fill="#7c2d12"/>
  <rect x="10" y="50" width="2" height="30" fill="#92400e"/>
  
  <rect x="50" y="35" width="6" height="45" fill="#7c2d12"/>
  <rect x="50" y="35" width="2" height="45" fill="#92400e"/>
  
  <rect x="90" y="50" width="6" height="30" fill="#7c2d12"/>
  <rect x="90" y="50" width="2" height="30" fill="#92400e"/>
  
  <!-- Track (pixelated curve) -->
  <rect x="8" y="48" width="12" height="4" fill="#ef4444"/>
  <rect x="20" y="44" width="8" height="4" fill="#ef4444"/>
  <rect x="28" y="40" width="8" height="4" fill="#ef4444"/>
  <rect x="36" y="36" width="8" height="4" fill="#ef4444"/>
  <rect x="44" y="34" width="8" height="4" fill="#ef4444"/>
  <rect x="52" y="34" width="8" height="4" fill="#ef4444"/>
  <rect x="60" y="36" width="8" height="4" fill="#ef4444"/>
  <rect x="68" y="40" width="8" height="4" fill="#ef4444"/>
  <rect x="76" y="44" width="8" height="4" fill="#ef4444"/>
  <rect x="84" y="48" width="12" height="4" fill="#ef4444"/>
  <rect x="96" y="48" width="16" height="4" fill="#ef4444"/>
  
  <!-- Track shadow -->
  <rect x="8" y="52" width="12" height="2" fill="#991b1b"/>
  <rect x="20" y="48" width="8" height="2" fill="#991b1b"/>
  <rect x="28" y="44" width="8" height="2" fill="#991b1b"/>
  <rect x="44" y="38" width="16" height="2" fill="#991b1b"/>
  <rect x="68" y="44" width="8" height="2" fill="#991b1b"/>
  <rect x="84" y="52" width="28" height="2" fill="#991b1b"/>
  
  <!-- Train - Front car -->
  <rect x="46" y="26" width="16" height="10" fill="#fbbf24"/>
  <rect x="46" y="26" width="16" height="2" fill="#fde047"/>
  <rect x="50" y="28" width="4" height="4" fill="#92400e"/>
  <rect x="56" y="28" width="4" height="4" fill="#92400e"/>
  
  <!-- Wheels front -->
  <rect x="48" y="36" width="4" height="4" fill="#374151"/>
  <rect x="56" y="36" width="4" height="4" fill="#374151"/>
  
  <!-- Train - Back car -->
  <rect x="64" y="28" width="14" height="10" fill="#f59e0b"/>
  <rect x="64" y="28" width="14" height="2" fill="#fbbf24"/>
  <rect x="68" y="30" width="4" height="4" fill="#92400e"/>
  
  <!-- Wheels back -->
  <rect x="66" y="38" width="4" height="4" fill="#374151"/>
  <rect x="72" y="38" width="4" height="4" fill="#374151"/>
</svg>
