<svg width="40" height="40" viewBox="0 0 20 20" xmlns="http://www.w3.org/2000/svg" shape-rendering="crispEdges">
  <!-- Soil -->
  <rect x="2" y="10" width="16" height="8" fill="#5d4037" />
  <rect x="1" y="10" width="18" height="8" fill="#795548" />
  <rect x="2" y="11" width="16" height="6" fill="#3e2723" />
  
  <!-- Flowers -->
  <!-- Red -->
  <rect x="3" y="12" width="3" height="3" fill="#e53935" />
  <rect x="4" y="13" width="1" height="1" fill="#ffcdd2" />
  
  <!-- Yellow -->
  <rect x="7" y="14" width="3" height="3" fill="#fdd835" />
  <rect x="8" y="15" width="1" height="1" fill="#fff9c4" />
  
  <!-- Purple -->
  <rect x="11" y="12" width="3" height="3" fill="#8e24aa" />
  <rect x="12" y="13" width="1" height="1" fill="#e1bee7" />
  
  <!-- Blue -->
  <rect x="15" y="14" width="3" height="3" fill="#1e88e5" />
  <rect x="16" y="15" width="1" height="1" fill="#bbdefb" />
  
  <!-- Leaves -->
  <rect x="2" y="15" width="2" height="2" fill="#43a047" />
  <rect x="6" y="12" width="2" height="2" fill="#43a047" />
  <rect x="10" y="15" width="2" height="2" fill="#43a047" />
  <rect x="14" y="12" width="2" height="2" fill="#43a047" />
</svg>