<svg xmlns="http://www.w3.org/2000/svg" viewBox="0 0 120 80" shape-rendering="crispEdges">
  <!-- Supports -->
  <rect x="14" y="48" width="6" height="32" fill="#7c2d12"/>
  <rect x="14" y="48" width="2" height="32" fill="#92400e"/>
  <rect x="54" y="20" width="6" height="60" fill="#7c2d12"/>
  <rect x="54" y="20" width="2" height="60" fill="#92400e"/>
  <rect x="94" y="44" width="6" height="36" fill="#7c2d12"/>
  <rect x="94" y="44" width="2" height="36" fill="#92400e"/>

  <!-- Track -->
  <rect x="10" y="46" width="12" height="4" fill="#dc2626"/>
  <rect x="22" y="40" width="8" height="4" fill="#dc2626"/>
  <rect x="30" y="34" width="8" height="4" fill="#dc2626"/>
  <rect x="38" y="28" width="8" height="4" fill="#dc2626"/>
  <rect x="46" y="22" width="8" height="4" fill="#dc2626"/>
  <rect x="54" y="18" width="8" height="4" fill="#dc2626"/>
  <rect x="62" y="22" width="8" height="4" fill="#dc2626"/>
  <rect x="70" y="28" width="8" height="4" fill="#dc2626"/>
  <rect x="78" y="34" width="8" height="4" fill="#dc2626"/>
  <rect x="86" y="40" width="8" height="4" fill="#dc2626"/>
  <rect x="94" y="46" width="16" height="4" fill="#dc2626"/>

  <!-- Track shadow -->
  <rect x="10" y="50" width="12" height="2" fill="#991b1b"/>
  <rect x="22" y="44" width="8" height="2" fill="#991b1b"/>
  <rect x="30" y="38" width="8" height="2" fill="#991b1b"/>
  <rect x="46" y="26" width="16" height="2" fill="#991b1b"/>
  <rect x="78" y="38" width="8" height="2" fill="#991b1b"/>
  <rect x="94" y="50" width="16" height="2" fill="#991b1b"/>

  <!-- Mega train -->
  <rect x="50" y="10" width="18" height="10" fill="#fbbf24"/>
  <rect x="50" y="10" width="18" height="2" fill="#fde047"/>
  <rect x="54" y="12" width="4" height="4" fill="#7c2d12"/>
  <rect x="60" y="12" width="4" height="4" fill="#7c2d12"/>
  <rect x="52" y="20" width="4" height="4" fill="#374151"/>
  <rect x="62" y="20" width="4" height="4" fill="#374151"/>
  <rect x="70" y="14" width="12" height="8" fill="#f59e0b"/>
  <rect x="72" y="22" width="4" height="4" fill="#374151"/>
  <rect x="78" y="22" width="4" height="4" fill="#374151"/>
</svg>
