<svg xmlns="http://www.w3.org/2000/svg" viewBox="0 0 80 80" shape-rendering="crispEdges">
  <!-- Night base -->
  <rect x="8" y="60" width="64" height="12" fill="#4c1d95"/>
  <rect x="8" y="60" width="10" height="12" fill="#312e81"/>

  <!-- Left tower -->
  <rect x="12" y="34" width="14" height="26" fill="#a78bfa"/>
  <rect x="12" y="34" width="4" height="26" fill="#8b5cf6"/>
  <rect x="12" y="30" width="4" height="4" fill="#7c3aed"/>
  <rect x="18" y="26" width="4" height="8" fill="#7c3aed"/>
  <rect x="22" y="30" width="4" height="4" fill="#7c3aed"/>

  <!-- Right tower -->
  <rect x="54" y="34" width="14" height="26" fill="#a78bfa"/>
  <rect x="54" y="34" width="4" height="26" fill="#8b5cf6"/>
  <rect x="54" y="30" width="4" height="4" fill="#7c3aed"/>
  <rect x="60" y="26" width="4" height="8" fill="#7c3aed"/>
  <rect x="64" y="30" width="4" height="4" fill="#7c3aed"/>

  <!-- Palace center -->
  <rect x="28" y="40" width="24" height="20" fill="#c4b5fd"/>
  <rect x="28" y="40" width="4" height="20" fill="#a78bfa"/>
  <rect x="32" y="34" width="16" height="6" fill="#8b5cf6"/>
  <rect x="36" y="28" width="8" height="6" fill="#7c3aed"/>

  <!-- Door -->
  <rect x="36" y="50" width="8" height="10" fill="#581c87"/>
  <rect x="36" y="50" width="8" height="2" fill="#4c1d95"/>

  <!-- Moon -->
  <rect x="56" y="10" width="10" height="10" fill="#fef3c7"/>
  <rect x="60" y="8" width="8" height="10" fill="#c4b5fd"/>

  <!-- Windows -->
  <rect x="16" y="42" width="4" height="6" fill="#fde047"/>
  <rect x="58" y="42" width="4" height="6" fill="#fde047"/>
  <rect x="34" y="44" width="4" height="4" fill="#fde047"/>
  <rect x="42" y="44" width="4" height="4" fill="#fde047"/>
</svg>
