<svg xmlns="http://www.w3.org/2000/svg" viewBox="0 0 80 80" shape-rendering="crispEdges">
  <rect width="80" height="80" fill="none"/>

  <!-- Big mountain base -->
  <polygon points="4,74 30,28 56,74" fill="#166534"/>
  <polygon points="4,74 30,28 56,74" fill="#14532d" opacity="0.15"/>

  <!-- Snow cap big mountain -->
  <polygon points="22,40 30,28 38,40" fill="#e5e7eb"/>
  <polygon points="25,42 30,33 35,42" fill="#d1d5db"/>

  <!-- Small mountain base -->
  <polygon points="34,74 50,40 72,74" fill="#15803d"/>
  <polygon points="34,74 50,40 72,74" fill="#14532d" opacity="0.12"/>

  <!-- Snow cap small mountain -->
  <polygon points="46,48 50,40 54,48" fill="#f1f5f9"/>
  <polygon points="48,50 50,44 52,50" fill="#e2e8f0"/>

  <!-- Grass dots -->
  <rect x="18" y="62" width="2" height="2" fill="#0f5132"/>
  <rect x="22" y="66" width="2" height="2" fill="#0f5132"/>
  <rect x="12" y="68" width="2" height="2" fill="#0f5132"/>
  <rect x="44" y="66" width="2" height="2" fill="#0f5132"/>
  <rect x="52" y="62" width="2" height="2" fill="#0f5132"/>
  <rect x="58" y="68" width="2" height="2" fill="#0f5132"/>
</svg>
