<svg xmlns="http://www.w3.org/2000/svg" width="120" height="120" viewBox="0 0 32 32" shape-rendering="crispEdges">
  <!-- Roof with hazard stripes -->
  <rect x="2" y="8" width="28" height="4" fill="#1f2937"/>
  <rect x="2" y="8" width="4" height="2" fill="#0f172a"/>
  <rect x="6" y="8" width="4" height="2" fill="#fbbf24"/>
  <rect x="10" y="8" width="4" height="2" fill="#0f172a"/>
  <rect x="14" y="8" width="4" height="2" fill="#fbbf24"/>
  <rect x="18" y="8" width="4" height="2" fill="#0f172a"/>
  <rect x="22" y="8" width="4" height="2" fill="#fbbf24"/>
  <rect x="26" y="8" width="4" height="2" fill="#0f172a"/>
  <rect x="2" y="10" width="28" height="2" fill="#374151"/>

  <!-- Building body -->
  <rect x="4" y="12" width="24" height="16" fill="#9ca3af"/>
  <rect x="4" y="12" width="24" height="2" fill="#e5e7eb"/>
  <rect x="4" y="26" width="24" height="2" fill="#6b7280"/>

  <!-- Tool cabinet sign -->
  <rect x="6" y="16" width="4" height="8" fill="#1f2937"/>
  <rect x="6" y="16" width="4" height="1" fill="#4b5563"/>
  <rect x="7" y="17" width="2" height="1" fill="#d1d5db"/>
  <rect x="6" y="18" width="4" height="1" fill="#d1d5db"/>
  <rect x="7" y="19" width="2" height="2" fill="#9ca3af"/>
  <rect x="6" y="21" width="4" height="1" fill="#d1d5db"/>
  <rect x="7" y="22" width="2" height="1" fill="#d1d5db"/>

  <!-- Door -->
  <rect x="12" y="16" width="8" height="12" fill="#60a5fa"/>
  <rect x="12" y="16" width="8" height="2" fill="#93c5fd"/>
  <rect x="14" y="18" width="4" height="4" fill="#bfdbfe"/>
  <rect x="19" y="24" width="1" height="2" fill="#facc15"/>

  <!-- Utility box -->
  <rect x="22" y="18" width="4" height="6" fill="#1f2937"/>
  <rect x="22" y="18" width="4" height="1" fill="#4b5563"/>
  <rect x="23" y="20" width="2" height="2" fill="#10b981"/>

  <!-- Base shadow -->
  <rect x="8" y="28" width="16" height="2" fill="#000000" opacity="0.25"/>
</svg>
